<svg width="50" height="47" viewBox="0 0 50 47" fill="none" xmlns="http://www.w3.org/2000/svg">
<path d="M11.2837 46.696C10.076 47.3167 8.70865 46.2319 8.95177 44.8461L11.5447 30.0664L0.537385 19.5769C-0.491305 18.5966 0.041196 16.8043 1.41929 16.6085L16.727 14.4339L23.5524 0.913453C24.1672 -0.304484 25.8328 -0.304484 26.4476 0.913453L33.273 14.4339L48.5807 16.6085C49.9588 16.8043 50.4913 18.5966 49.4626 19.5769L38.4553 30.0664L41.0482 44.8461C41.2913 46.2319 39.924 47.3167 38.7163 46.696L25 39.6462L11.2837 46.696Z" fill="#799300"/>
<path d="M20.0031 28.9023L22.1124 28.6211C22.3546 29.8164 22.7648 30.6797 23.3429 31.2109C23.9288 31.7344 24.6398 31.9961 25.4757 31.9961C26.4679 31.9961 27.3038 31.6523 27.9835 30.9648C28.671 30.2773 29.0148 29.4258 29.0148 28.4102C29.0148 27.4414 28.6984 26.6445 28.0656 26.0195C27.4327 25.3867 26.6281 25.0703 25.6515 25.0703C25.2531 25.0703 24.757 25.1484 24.1632 25.3047L24.3976 23.4531C24.5382 23.4688 24.6515 23.4766 24.7374 23.4766C25.6359 23.4766 26.4445 23.2422 27.1632 22.7734C27.882 22.3047 28.2413 21.582 28.2413 20.6055C28.2413 19.832 27.9796 19.1914 27.4562 18.6836C26.9327 18.1758 26.257 17.9219 25.4288 17.9219C24.6085 17.9219 23.9249 18.1797 23.3781 18.6953C22.8312 19.2109 22.4796 19.9844 22.3234 21.0156L20.214 20.6406C20.4718 19.2266 21.0577 18.1328 21.9718 17.3594C22.8859 16.5781 24.0226 16.1875 25.382 16.1875C26.3195 16.1875 27.1827 16.3906 27.9718 16.7969C28.7609 17.1953 29.3624 17.7422 29.7765 18.4375C30.1984 19.1328 30.4093 19.8711 30.4093 20.6523C30.4093 21.3945 30.2101 22.0703 29.8116 22.6797C29.4132 23.2891 28.8234 23.7734 28.0421 24.1328C29.0577 24.3672 29.8468 24.8555 30.4093 25.5977C30.9718 26.332 31.2531 27.2539 31.2531 28.3633C31.2531 29.8633 30.7062 31.1367 29.6124 32.1836C28.5187 33.2227 27.1359 33.7422 25.464 33.7422C23.9562 33.7422 22.7023 33.293 21.7023 32.3945C20.7101 31.4961 20.1437 30.332 20.0031 28.9023Z" fill="#FFFBF2"/>
</svg>
