<svg width="50" height="50" viewBox="0 0 50 50" fill="none" xmlns="http://www.w3.org/2000/svg">
<path d="M11.2884 48.2585C10.0808 48.8792 8.71341 47.7944 8.95653 46.4086L11.5494 31.6289L0.542146 21.1394C-0.486544 20.1591 0.0459567 18.3668 1.42405 18.171L16.7318 15.9964L23.5572 2.47595C24.172 1.25802 25.8375 1.25802 26.4524 2.47595L33.2777 15.9964L48.5855 18.171C49.9636 18.3668 50.4961 20.1591 49.4674 21.1394L38.4601 31.6289L41.053 46.4086C41.2961 47.7944 39.9287 48.8792 38.7211 48.2585L25.0048 41.2087L11.2884 48.2585Z" fill="#799300"/>
<path d="M26.9414 35H24.832V21.5586C24.3242 22.043 23.6562 22.5273 22.8281 23.0117C22.0078 23.4961 21.2695 23.8594 20.6133 24.1016V22.0625C21.793 21.5078 22.8242 20.8359 23.707 20.0469C24.5898 19.2578 25.2148 18.4922 25.582 17.75H26.9414V35Z" fill="#FFFBF2"/>
</svg>
