<svg width="50" height="50" viewBox="0 0 50 50" fill="none" xmlns="http://www.w3.org/2000/svg">
<path d="M11.2884 48.2585C10.0808 48.8792 8.71341 47.7944 8.95653 46.4086L11.5494 31.6289L0.542146 21.1394C-0.486544 20.1591 0.0459567 18.3668 1.42405 18.171L16.7318 15.9964L23.5572 2.47595C24.172 1.25802 25.8375 1.25802 26.4524 2.47595L33.2777 15.9964L48.5855 18.171C49.9636 18.3668 50.4961 20.1591 49.4674 21.1394L38.4601 31.6289L41.053 46.4086C41.2961 47.7944 39.9287 48.8792 38.7211 48.2585L25.0048 41.2087L11.2884 48.2585Z" fill="#799300"/>
<path d="M30.082 32.9727V35H18.7266C18.7109 34.4922 18.793 34.0039 18.9727 33.5352C19.2617 32.7617 19.7227 32 20.3555 31.25C20.9961 30.5 21.918 29.6328 23.1211 28.6484C24.9883 27.1172 26.25 25.9062 26.9062 25.0156C27.5625 24.1172 27.8906 23.2695 27.8906 22.4727C27.8906 21.6367 27.5898 20.9336 26.9883 20.3633C26.3945 19.7852 25.6172 19.4961 24.6562 19.4961C23.6406 19.4961 22.8281 19.8008 22.2188 20.4102C21.6094 21.0195 21.3008 21.8633 21.293 22.9414L19.125 22.7188C19.2734 21.1016 19.832 19.8711 20.8008 19.0273C21.7695 18.1758 23.0703 17.75 24.7031 17.75C26.3516 17.75 27.6562 18.207 28.6172 19.1211C29.5781 20.0352 30.0586 21.168 30.0586 22.5195C30.0586 23.207 29.918 23.8828 29.6367 24.5469C29.3555 25.2109 28.8867 25.9102 28.2305 26.6445C27.582 27.3789 26.5 28.3867 24.9844 29.668C23.7188 30.7305 22.9062 31.4531 22.5469 31.8359C22.1875 32.2109 21.8906 32.5898 21.6562 32.9727H30.082Z" fill="#FFFBF2"/>
</svg>
